<svg xmlns="http://www.w3.org/2000/svg" xmlns:xlink="http://www.w3.org/1999/xlink" width="927" height="679" contentStyleType="text/css" preserveAspectRatio="none" style="width:927px;height:679px;background:#fff" version="1.1" viewBox="0 0 927 679" zoomAndPan="magnify"><g><rect height="183.93" style="stroke:#000;stroke-width:1.5;fill:none" width="591" x="10" y="53.297"/><rect height="286.461" style="stroke:#000;stroke-width:1.5;fill:none" width="718.5" x="108.5" y="251.227"/><rect height="75.398" style="stroke:#000;stroke-width:1.5;fill:none" width="812.5" x="108.5" y="551.688"/><line style="stroke:#181818;stroke-width:.5;fill:none;stroke-dasharray:5,5" x1="58" x2="58" y1="36.297" y2="644.086"/><line style="stroke:#181818;stroke-width:.5;fill:none;stroke-dasharray:5,5" x1="168.5" x2="168.5" y1="36.297" y2="644.086"/><line style="stroke:#181818;stroke-width:.5;fill:none;stroke-dasharray:5,5" x1="280.5" x2="280.5" y1="36.297" y2="644.086"/><line style="stroke:#181818;stroke-width:.5;fill:none;stroke-dasharray:5,5" x1="407" x2="407" y1="36.297" y2="644.086"/><line style="stroke:#181818;stroke-width:.5;fill:none;stroke-dasharray:5,5" x1="558" x2="558" y1="36.297" y2="644.086"/><line style="stroke:#181818;stroke-width:.5;fill:none;stroke-dasharray:5,5" x1="689" x2="689" y1="36.297" y2="644.086"/><line style="stroke:#181818;stroke-width:.5;fill:none;stroke-dasharray:5,5" x1="769" x2="769" y1="36.297" y2="644.086"/><line style="stroke:#181818;stroke-width:.5;fill:none;stroke-dasharray:5,5" x1="869" x2="869" y1="36.297" y2="644.086"/><rect width="77" height="30.297" x="20" y="5" fill="#E2E2F0" rx="2.5" ry="2.5" style="stroke:#181818;stroke-width:.5"/><text x="27" y="24.995" fill="#000" font-family="sans-serif" font-size="14" lengthAdjust="spacing" textLength="63">KVClient</text><rect width="77" height="30.297" x="20" y="643.086" fill="#E2E2F0" rx="2.5" ry="2.5" style="stroke:#181818;stroke-width:.5"/><text x="27" y="663.081" fill="#000" font-family="sans-serif" font-size="14" lengthAdjust="spacing" textLength="63">KVClient</text><rect width="100" height="30.297" x="118.5" y="5" fill="#E2E2F0" rx="2.5" ry="2.5" style="stroke:#181818;stroke-width:.5"/><text x="125.5" y="24.995" fill="#000" font-family="sans-serif" font-size="14" lengthAdjust="spacing" textLength="86">TableSorter</text><rect width="100" height="30.297" x="118.5" y="643.086" fill="#E2E2F0" rx="2.5" ry="2.5" style="stroke:#181818;stroke-width:.5"/><text x="125.5" y="663.081" fill="#000" font-family="sans-serif" font-size="14" lengthAdjust="spacing" textLength="86">TableSorter</text><rect width="60" height="30.297" x="250.5" y="5" fill="#E2E2F0" rx="2.5" ry="2.5" style="stroke:#181818;stroke-width:.5"/><text x="257.5" y="24.995" fill="#000" font-family="sans-serif" font-size="14" lengthAdjust="spacing" textLength="46">Writer</text><rect width="60" height="30.297" x="250.5" y="643.086" fill="#E2E2F0" rx="2.5" ry="2.5" style="stroke:#181818;stroke-width:.5"/><text x="257.5" y="663.081" fill="#000" font-family="sans-serif" font-size="14" lengthAdjust="spacing" textLength="46">Writer</text><rect width="75" height="30.297" x="370" y="5" fill="#E2E2F0" rx="2.5" ry="2.5" style="stroke:#181818;stroke-width:.5"/><text x="377" y="24.995" fill="#000" font-family="sans-serif" font-size="14" lengthAdjust="spacing" textLength="61">DBActor</text><rect width="75" height="30.297" x="370" y="643.086" fill="#E2E2F0" rx="2.5" ry="2.5" style="stroke:#181818;stroke-width:.5"/><text x="377" y="663.081" fill="#000" font-family="sans-serif" font-size="14" lengthAdjust="spacing" textLength="61">DBActor</text><rect width="65" height="30.297" x="526" y="5" fill="#E2E2F0" rx="2.5" ry="2.5" style="stroke:#181818;stroke-width:.5"/><text x="533" y="24.995" fill="#000" font-family="sans-serif" font-size="14" lengthAdjust="spacing" textLength="51">Reader</text><rect width="65" height="30.297" x="526" y="643.086" fill="#E2E2F0" rx="2.5" ry="2.5" style="stroke:#181818;stroke-width:.5"/><text x="533" y="663.081" fill="#000" font-family="sans-serif" font-size="14" lengthAdjust="spacing" textLength="51">Reader</text><rect width="45" height="30.297" x="667" y="5" fill="#E2E2F0" rx="2.5" ry="2.5" style="stroke:#181818;stroke-width:.5"/><text x="674" y="24.995" fill="#000" font-family="sans-serif" font-size="14" lengthAdjust="spacing" textLength="31">Sink</text><rect width="45" height="30.297" x="667" y="643.086" fill="#E2E2F0" rx="2.5" ry="2.5" style="stroke:#181818;stroke-width:.5"/><text x="674" y="663.081" fill="#000" font-family="sans-serif" font-size="14" lengthAdjust="spacing" textLength="31">Sink</text><rect width="95" height="30.297" x="722" y="5" fill="#E2E2F0" rx="2.5" ry="2.5" style="stroke:#181818;stroke-width:.5"/><text x="729" y="24.995" fill="#000" font-family="sans-serif" font-size="14" lengthAdjust="spacing" textLength="81">Compactor</text><rect width="95" height="30.297" x="722" y="643.086" fill="#E2E2F0" rx="2.5" ry="2.5" style="stroke:#181818;stroke-width:.5"/><text x="729" y="663.081" fill="#000" font-family="sans-serif" font-size="14" lengthAdjust="spacing" textLength="81">Compactor</text><rect width="84" height="30.297" x="827" y="5" fill="#E2E2F0" rx="2.5" ry="2.5" style="stroke:#181818;stroke-width:.5"/><text x="834" y="24.995" fill="#000" font-family="sans-serif" font-size="14" lengthAdjust="spacing" textLength="70">Processor</text><rect width="84" height="30.297" x="827" y="643.086" fill="#E2E2F0" rx="2.5" ry="2.5" style="stroke:#181818;stroke-width:.5"/><text x="834" y="663.081" fill="#000" font-family="sans-serif" font-size="14" lengthAdjust="spacing" textLength="70">Processor</text><path fill="#EEE" d="M10,53.2969 L88,53.2969 L88,60.4297 L78,70.4297 L10,70.4297 L10,53.2969" style="stroke:#000;stroke-width:1.5"/><rect width="591" height="183.93" x="10" fill="none" style="stroke:#000;stroke-width:1.5" y="53.297"/><text x="25" y="66.364" fill="#000" font-family="sans-serif" font-size="13" font-weight="bold" lengthAdjust="spacing" textLength="33">loop</text><text x="103" y="65.507" fill="#000" font-family="sans-serif" font-size="11" font-weight="bold" lengthAdjust="spacing" textLength="70">[AddEntry]</text><polygon fill="#181818" points="156.5 87.563 166.5 91.563 156.5 95.563 160.5 91.563" style="stroke:#181818;stroke-width:1"/><line style="stroke:#181818;stroke-width:1" x1="58.5" x2="162.5" y1="91.563" y2="91.563"/><text x="65.5" y="86.497" fill="#000" font-family="sans-serif" font-size="13" lengthAdjust="spacing" textLength="86">Call AddEntry</text><polygon fill="#181818" points="268.5 116.695 278.5 120.695 268.5 124.695 272.5 120.695" style="stroke:#181818;stroke-width:1"/><line style="stroke:#181818;stroke-width:1" x1="168.5" x2="274.5" y1="120.695" y2="120.695"/><text x="175.5" y="115.629" fill="#000" font-family="sans-serif" font-size="13" lengthAdjust="spacing" textLength="88">Task (Events)</text><polygon fill="#181818" points="395.5 145.828 405.5 149.828 395.5 153.828 399.5 149.828" style="stroke:#181818;stroke-width:1"/><line style="stroke:#181818;stroke-width:1" x1="280.5" x2="401.5" y1="149.828" y2="149.828"/><text x="287.5" y="144.762" fill="#000" font-family="sans-serif" font-size="13" lengthAdjust="spacing" textLength="103">Task (WriteReq)</text><line style="stroke:#181818;stroke-width:1" x1="407.5" x2="449.5" y1="175.461" y2="175.461"/><line style="stroke:#181818;stroke-width:1" x1="449.5" x2="449.5" y1="175.461" y2="188.461"/><line style="stroke:#181818;stroke-width:1" x1="408.5" x2="449.5" y1="188.461" y2="188.461"/><polygon fill="#181818" points="418.5 184.461 408.5 188.461 418.5 192.461 414.5 188.461" style="stroke:#181818;stroke-width:1"/><path fill="#FEFFDD" d="M457,162.8281 L457,202.8281 L560,202.8281 L560,172.8281 L550,162.8281 L457,162.8281" style="stroke:#181818;stroke-width:.5"/><path fill="#FEFFDD" d="M550,162.8281 L550,172.8281 L560,172.8281 L550,162.8281" style="stroke:#181818;stroke-width:.5"/><text x="463" y="179.895" fill="#000" font-family="sans-serif" font-size="13" lengthAdjust="spacing" textLength="82">Write events</text><text x="463" y="195.028" fill="#000" font-family="sans-serif" font-size="13" lengthAdjust="spacing" textLength="63">to leveldb</text><polygon fill="#181818" points="546.5 225.227 556.5 229.227 546.5 233.227 550.5 229.227" style="stroke:#181818;stroke-width:1"/><line style="stroke:#181818;stroke-width:1" x1="280.5" x2="552.5" y1="229.227" y2="229.227"/><text x="287.5" y="224.161" fill="#000" font-family="sans-serif" font-size="13" lengthAdjust="spacing" textLength="92">Task (ReadTs)</text><path fill="#EEE" d="M108.5,251.2266 L186.5,251.2266 L186.5,258.3594 L176.5,268.3594 L108.5,268.3594 L108.5,251.2266" style="stroke:#000;stroke-width:1.5"/><rect width="718.5" height="286.461" x="108.5" fill="none" style="stroke:#000;stroke-width:1.5" y="251.227"/><text x="123.5" y="264.293" fill="#000" font-family="sans-serif" font-size="13" font-weight="bold" lengthAdjust="spacing" textLength="33">loop</text><text x="201.5" y="263.437" fill="#000" font-family="sans-serif" font-size="11" font-weight="bold" lengthAdjust="spacing" textLength="58">[Output]</text><polygon fill="#181818" points="179.5 285.492 169.5 289.492 179.5 293.492 175.5 289.492" style="stroke:#181818;stroke-width:1"/><line style="stroke:#181818;stroke-width:1" x1="173.5" x2="688.5" y1="289.492" y2="289.492"/><text x="185.5" y="284.426" fill="#000" font-family="sans-serif" font-size="13" lengthAdjust="spacing" textLength="71">Call Output</text><polygon fill="#181818" points="546.5 314.625 556.5 318.625 546.5 322.625 550.5 318.625" style="stroke:#181818;stroke-width:1"/><line style="stroke:#181818;stroke-width:1" x1="168.5" x2="552.5" y1="318.625" y2="318.625"/><text x="175.5" y="313.559" fill="#000" font-family="sans-serif" font-size="13" lengthAdjust="spacing" textLength="92">Task (ReadTs)</text><polygon fill="#181818" points="418.5 343.758 408.5 347.758 418.5 351.758 414.5 347.758" style="stroke:#181818;stroke-width:1"/><line style="stroke:#181818;stroke-width:1" x1="412.5" x2="557.5" y1="347.758" y2="347.758"/><text x="424.5" y="342.692" fill="#000" font-family="sans-serif" font-size="13" lengthAdjust="spacing" textLength="90">Task (IterReq)</text><line style="stroke:#181818;stroke-width:1" x1="407.5" x2="449.5" y1="373.391" y2="373.391"/><line style="stroke:#181818;stroke-width:1" x1="449.5" x2="449.5" y1="373.391" y2="386.391"/><line style="stroke:#181818;stroke-width:1" x1="408.5" x2="449.5" y1="386.391" y2="386.391"/><polygon fill="#181818" points="418.5 382.391 408.5 386.391 418.5 390.391 414.5 386.391" style="stroke:#181818;stroke-width:1"/><path fill="#FEFFDD" d="M457,360.7578 L457,400.7578 L567,400.7578 L567,370.7578 L557,360.7578 L457,360.7578" style="stroke:#181818;stroke-width:.5"/><path fill="#FEFFDD" d="M557,360.7578 L557,370.7578 L567,370.7578 L557,360.7578" style="stroke:#181818;stroke-width:.5"/><text x="463" y="377.825" fill="#000" font-family="sans-serif" font-size="13" lengthAdjust="spacing" textLength="89">Take iterators</text><text x="463" y="392.957" fill="#000" font-family="sans-serif" font-size="13" lengthAdjust="spacing" textLength="81">from leveldb</text><polygon fill="#181818" points="546.5 423.156 556.5 427.156 546.5 431.156 550.5 427.156" style="stroke:#181818;stroke-width:1"/><line style="stroke:#181818;stroke-width:1" x1="407.5" x2="552.5" y1="427.156" y2="427.156"/><text x="414.5" y="422.09" fill="#000" font-family="sans-serif" font-size="13" lengthAdjust="spacing" textLength="47">Iterator</text><polygon fill="#181818" points="677.5 467.422 687.5 471.422 677.5 475.422 681.5 471.422" style="stroke:#181818;stroke-width:1"/><line style="stroke:#181818;stroke-width:1" x1="558.5" x2="683.5" y1="471.422" y2="471.422"/><text x="565.5" y="451.223" fill="#000" font-family="sans-serif" font-size="13" lengthAdjust="spacing" textLength="107">Resolved Events</text><text x="565.5" y="466.356" fill="#000" font-family="sans-serif" font-size="13" lengthAdjust="spacing" textLength="92">(from Iterator)</text><polygon fill="#181818" points="418.5 496.555 408.5 500.555 418.5 504.555 414.5 500.555" style="stroke:#181818;stroke-width:1"/><line style="stroke:#181818;stroke-width:1" x1="412.5" x2="557.5" y1="500.555" y2="500.555"/><text x="424.5" y="495.489" fill="#000" font-family="sans-serif" font-size="13" lengthAdjust="spacing" textLength="127">Task (DeleteRange)</text><polygon fill="#181818" points="757.5 525.688 767.5 529.688 757.5 533.688 761.5 529.688" style="stroke:#181818;stroke-width:1"/><line style="stroke:#181818;stroke-width:1" x1="407.5" x2="763.5" y1="529.688" y2="529.688"/><text x="414.5" y="524.622" fill="#000" font-family="sans-serif" font-size="13" lengthAdjust="spacing" textLength="58">Compact</text><path fill="#EEE" d="M108.5,551.6875 L257.5,551.6875 L257.5,558.8203 L247.5,568.8203 L108.5,568.8203 L108.5,551.6875" style="stroke:#000;stroke-width:1.5"/><rect width="812.5" height="75.398" x="108.5" fill="none" style="stroke:#000;stroke-width:1.5" y="551.688"/><text x="123.5" y="564.754" fill="#000" font-family="sans-serif" font-size="13" font-weight="bold" lengthAdjust="spacing" textLength="104">Remove table</text><polygon fill="#181818" points="179.5 585.953 169.5 589.953 179.5 593.953 175.5 589.953" style="stroke:#181818;stroke-width:1"/><line style="stroke:#181818;stroke-width:1" x1="173.5" x2="868" y1="589.953" y2="589.953"/><text x="185.5" y="584.887" fill="#000" font-family="sans-serif" font-size="13" lengthAdjust="spacing" textLength="29">Stop</text><polygon fill="#181818" points="395.5 615.086 405.5 619.086 395.5 623.086 399.5 619.086" style="stroke:#181818;stroke-width:1"/><line style="stroke:#181818;stroke-width:1" x1="168.5" x2="401.5" y1="619.086" y2="619.086"/><text x="175.5" y="614.02" fill="#000" font-family="sans-serif" font-size="13" lengthAdjust="spacing" textLength="127">Task (DeleteRange)</text></g></svg>