<svg xmlns="http://www.w3.org/2000/svg" xmlns:xlink="http://www.w3.org/1999/xlink" width="588" height="582" contentScriptType="application/ecmascript" contentStyleType="text/css" preserveAspectRatio="none" style="width:588px;height:582px;background:#fff" version="1.1" viewBox="0 0 588 582" zoomAndPan="magnify"><defs><filter id="fdli4u00jl8l1" width="300%" height="300%" x="-1" y="-1"><feGaussianBlur result="blurOut" stdDeviation="2"/><feColorMatrix in="blurOut" result="blurOut2" type="matrix" values="0 0 0 0 0 0 0 0 0 0 0 0 0 0 0 0 0 0 .4 0"/><feOffset dx="4" dy="4" in="blurOut2" result="blurOut3"/><feBlend in="SourceGraphic" in2="blurOut3" mode="normal"/></filter></defs><g><line style="stroke:#a80036;stroke-width:1;stroke-dasharray:5,5" x1="158" x2="158" y1="40.297" y2="539.555"/><line style="stroke:#a80036;stroke-width:1;stroke-dasharray:5,5" x1="409" x2="409" y1="40.297" y2="539.555"/><line style="stroke:#a80036;stroke-width:1;stroke-dasharray:5,5" x1="523" x2="523" y1="40.297" y2="539.555"/><rect width="60" height="30.297" x="126" y="5" fill="#FEFECE" filter="url(#fdli4u00jl8l1)" style="stroke:#a80036;stroke-width:1.5"/><text x="133" y="24.995" fill="#000" font-family="sans-serif" font-size="14" lengthAdjust="spacing" textLength="46">Owner</text><rect width="60" height="30.297" x="126" y="538.555" fill="#FEFECE" filter="url(#fdli4u00jl8l1)" style="stroke:#a80036;stroke-width:1.5"/><text x="133" y="558.55" fill="#000" font-family="sans-serif" font-size="14" lengthAdjust="spacing" textLength="46">Owner</text><rect width="100" height="30.297" x="357" y="5" fill="#FEFECE" filter="url(#fdli4u00jl8l1)" style="stroke:#a80036;stroke-width:1.5"/><text x="364" y="24.995" fill="#000" font-family="sans-serif" font-size="14" lengthAdjust="spacing" textLength="86">Processor_A</text><rect width="100" height="30.297" x="357" y="538.555" fill="#FEFECE" filter="url(#fdli4u00jl8l1)" style="stroke:#a80036;stroke-width:1.5"/><text x="364" y="558.55" fill="#000" font-family="sans-serif" font-size="14" lengthAdjust="spacing" textLength="86">Processor_A</text><rect width="100" height="30.297" x="471" y="5" fill="#FEFECE" filter="url(#fdli4u00jl8l1)" style="stroke:#a80036;stroke-width:1.5"/><text x="478" y="24.995" fill="#000" font-family="sans-serif" font-size="14" lengthAdjust="spacing" textLength="86">Processor_B</text><rect width="100" height="30.297" x="471" y="538.555" fill="#FEFECE" filter="url(#fdli4u00jl8l1)" style="stroke:#a80036;stroke-width:1.5"/><text x="478" y="558.55" fill="#000" font-family="sans-serif" font-size="14" lengthAdjust="spacing" textLength="86">Processor_B</text><polygon fill="#A80036" points="397 67.43 407 71.43 397 75.43 401 71.43" style="stroke:#a80036;stroke-width:1"/><line style="stroke:#a80036;stroke-width:1" x1="158" x2="403" y1="71.43" y2="71.43"/><text x="165" y="66.364" fill="#000" font-family="sans-serif" font-size="13" font-weight="bold" lengthAdjust="spacing" textLength="9">1</text><text x="178" y="66.364" fill="#000" font-family="sans-serif" font-size="13" lengthAdjust="spacing" textLength="64">Announce</text><polygon fill="#A80036" points="511 96.563 521 100.563 511 104.563 515 100.563" style="stroke:#a80036;stroke-width:1"/><line style="stroke:#a80036;stroke-width:1" x1="158" x2="517" y1="100.563" y2="100.563"/><text x="165" y="95.497" fill="#000" font-family="sans-serif" font-size="13" font-weight="bold" lengthAdjust="spacing" textLength="9">2</text><text x="178" y="95.497" fill="#000" font-family="sans-serif" font-size="13" lengthAdjust="spacing" textLength="64">Announce</text><polygon fill="#A80036" points="169 125.695 159 129.695 169 133.695 165 129.695" style="stroke:#a80036;stroke-width:1"/><line style="stroke:#a80036;stroke-width:1;stroke-dasharray:2,2" x1="163" x2="408" y1="129.695" y2="129.695"/><text x="175" y="124.629" fill="#000" font-family="sans-serif" font-size="13" font-weight="bold" lengthAdjust="spacing" textLength="9">3</text><text x="188" y="124.629" fill="#000" font-family="sans-serif" font-size="13" lengthAdjust="spacing" textLength="31">Sync</text><polygon fill="#A80036" points="169 182.527 159 186.527 169 190.527 165 186.527" style="stroke:#a80036;stroke-width:1"/><line style="stroke:#a80036;stroke-width:1;stroke-dasharray:2,2" x1="163" x2="522" y1="186.527" y2="186.527"/><text x="175" y="181.461" fill="#000" font-family="sans-serif" font-size="13" font-weight="bold" lengthAdjust="spacing" textLength="9">4</text><text x="188" y="181.461" fill="#000" font-family="sans-serif" font-size="13" lengthAdjust="spacing" textLength="31">Sync</text><path fill="#FBFB77" d="M5,142.6953 L5,212.6953 L149,212.6953 L149,152.6953 L139,142.6953 L5,142.6953" filter="url(#fdli4u00jl8l1)" style="stroke:#a80036;stroke-width:1"/><path fill="#FBFB77" d="M139,142.6953 L139,152.6953 L149,152.6953 L139,142.6953" style="stroke:#a80036;stroke-width:1"/><text x="11" y="159.762" fill="#000" font-family="sans-serif" font-size="13" lengthAdjust="spacing" textLength="123">Owner waits for all</text><text x="11" y="174.895" fill="#000" font-family="sans-serif" font-size="13" lengthAdjust="spacing" textLength="122">processors to Sync</text><text x="11" y="190.028" fill="#000" font-family="sans-serif" font-size="13" lengthAdjust="spacing" textLength="121">before dispatching</text><text x="11" y="205.161" fill="#000" font-family="sans-serif" font-size="13" lengthAdjust="spacing" textLength="61">any table</text><polygon fill="#A80036" points="397 239.359 407 243.359 397 247.359 401 243.359" style="stroke:#a80036;stroke-width:1"/><line style="stroke:#a80036;stroke-width:1" x1="158" x2="403" y1="243.359" y2="243.359"/><text x="165" y="238.293" fill="#000" font-family="sans-serif" font-size="13" font-weight="bold" lengthAdjust="spacing" textLength="9">5</text><text x="178" y="238.293" fill="#000" font-family="sans-serif" font-size="13" lengthAdjust="spacing" textLength="151">DispatchTable(Table 1)</text><polygon fill="#FBFB77" points="362 256.359 455 256.359 465 267.359 455 279.359 362 279.359 352 267.359 362 256.359" filter="url(#fdli4u00jl8l1)" style="stroke:#a80036;stroke-width:1"/><text x="364" y="272.426" fill="#000" font-family="sans-serif" font-size="13" lengthAdjust="spacing" textLength="89">starts Table 1</text><polygon fill="#A80036" points="511 301.625 521 305.625 511 309.625 515 305.625" style="stroke:#a80036;stroke-width:1"/><line style="stroke:#a80036;stroke-width:1" x1="158" x2="517" y1="305.625" y2="305.625"/><text x="165" y="300.559" fill="#000" font-family="sans-serif" font-size="13" font-weight="bold" lengthAdjust="spacing" textLength="9">6</text><text x="178" y="300.559" fill="#000" font-family="sans-serif" font-size="13" lengthAdjust="spacing" textLength="151">DispatchTable(Table 2)</text><polygon fill="#FBFB77" points="476 318.625 569 318.625 579 329.625 569 341.625 476 341.625 466 329.625 476 318.625" filter="url(#fdli4u00jl8l1)" style="stroke:#a80036;stroke-width:1"/><text x="478" y="334.692" fill="#000" font-family="sans-serif" font-size="13" lengthAdjust="spacing" textLength="89">starts Table 2</text><polygon fill="#FBFB77" points="362 351.758 455 351.758 465 362.758 455 374.758 362 374.758 352 362.758 362 351.758" filter="url(#fdli4u00jl8l1)" style="stroke:#a80036;stroke-width:1"/><text x="364" y="367.825" fill="#000" font-family="sans-serif" font-size="13" lengthAdjust="spacing" textLength="89">Table 1 ready</text><polygon fill="#A80036" points="169 397.023 159 401.023 169 405.023 165 401.023" style="stroke:#a80036;stroke-width:1"/><line style="stroke:#a80036;stroke-width:1;stroke-dasharray:2,2" x1="163" x2="408" y1="401.023" y2="401.023"/><text x="175" y="395.957" fill="#000" font-family="sans-serif" font-size="13" font-weight="bold" lengthAdjust="spacing" textLength="9">7</text><text x="188" y="395.957" fill="#000" font-family="sans-serif" font-size="13" lengthAdjust="spacing" textLength="214">DispatchTableResponse(Table 1)</text><polygon fill="#FBFB77" points="476 414.023 569 414.023 579 425.023 569 437.023 476 437.023 466 425.023 476 414.023" filter="url(#fdli4u00jl8l1)" style="stroke:#a80036;stroke-width:1"/><text x="478" y="430.09" fill="#000" font-family="sans-serif" font-size="13" lengthAdjust="spacing" textLength="89">Table 2 ready</text><polygon fill="#A80036" points="169 459.289 159 463.289 169 467.289 165 463.289" style="stroke:#a80036;stroke-width:1"/><line style="stroke:#a80036;stroke-width:1;stroke-dasharray:2,2" x1="163" x2="522" y1="463.289" y2="463.289"/><text x="175" y="458.223" fill="#000" font-family="sans-serif" font-size="13" font-weight="bold" lengthAdjust="spacing" textLength="9">8</text><text x="188" y="458.223" fill="#000" font-family="sans-serif" font-size="13" lengthAdjust="spacing" textLength="214">DispatchTableResponse(Table 2)</text><polygon fill="#A80036" points="169 488.422 159 492.422 169 496.422 165 492.422" style="stroke:#a80036;stroke-width:1"/><line style="stroke:#a80036;stroke-width:1;stroke-dasharray:2,2" x1="163" x2="408" y1="492.422" y2="492.422"/><text x="175" y="487.356" fill="#000" font-family="sans-serif" font-size="13" font-weight="bold" lengthAdjust="spacing" textLength="9">9</text><text x="188" y="487.356" fill="#000" font-family="sans-serif" font-size="13" lengthAdjust="spacing" textLength="73">Checkpoint</text><polygon fill="#A80036" points="169 517.555 159 521.555 169 525.555 165 521.555" style="stroke:#a80036;stroke-width:1"/><line style="stroke:#a80036;stroke-width:1;stroke-dasharray:2,2" x1="163" x2="522" y1="521.555" y2="521.555"/><text x="175" y="516.489" fill="#000" font-family="sans-serif" font-size="13" font-weight="bold" lengthAdjust="spacing" textLength="18">10</text><text x="197" y="516.489" fill="#000" font-family="sans-serif" font-size="13" lengthAdjust="spacing" textLength="73">Checkpoint</text></g></svg>