<svg xmlns="http://www.w3.org/2000/svg" xmlns:xlink="http://www.w3.org/1999/xlink" width="670" height="681" contentScriptType="application/ecmascript" contentStyleType="text/css" preserveAspectRatio="none" style="width:670px;height:681px;background:#fff" version="1.1" viewBox="0 0 670 681" zoomAndPan="magnify"><defs><filter id="f14urjb8y1a2ds" width="300%" height="300%" x="-1" y="-1"><feGaussianBlur result="blurOut" stdDeviation="2"/><feColorMatrix in="blurOut" result="blurOut2" type="matrix" values="0 0 0 0 0 0 0 0 0 0 0 0 0 0 0 0 0 0 .4 0"/><feOffset dx="4" dy="4" in="blurOut2" result="blurOut3"/><feBlend in="SourceGraphic" in2="blurOut3" mode="normal"/></filter></defs><g><line style="stroke:#a80036;stroke-width:1;stroke-dasharray:5,5" x1="132" x2="132" y1="40.297" y2="637.82"/><line style="stroke:#a80036;stroke-width:1;stroke-dasharray:5,5" x1="320" x2="320" y1="40.297" y2="637.82"/><line style="stroke:#a80036;stroke-width:1;stroke-dasharray:5,5" x1="602" x2="602" y1="40.297" y2="637.82"/><rect width="77" height="30.297" x="92" y="5" fill="#FEFECE" filter="url(#f14urjb8y1a2ds)" style="stroke:#a80036;stroke-width:1.5"/><text x="99" y="24.995" fill="#000" font-family="sans-serif" font-size="14" lengthAdjust="spacing" textLength="63">Owner_A</text><rect width="77" height="30.297" x="92" y="636.82" fill="#FEFECE" filter="url(#f14urjb8y1a2ds)" style="stroke:#a80036;stroke-width:1.5"/><text x="99" y="656.815" fill="#000" font-family="sans-serif" font-size="14" lengthAdjust="spacing" textLength="63">Owner_A</text><rect width="83" height="30.297" x="277" y="5" fill="#FEFECE" filter="url(#f14urjb8y1a2ds)" style="stroke:#a80036;stroke-width:1.5"/><text x="284" y="24.995" fill="#000" font-family="sans-serif" font-size="14" lengthAdjust="spacing" textLength="69">Processor</text><rect width="83" height="30.297" x="277" y="636.82" fill="#FEFECE" filter="url(#f14urjb8y1a2ds)" style="stroke:#a80036;stroke-width:1.5"/><text x="284" y="656.815" fill="#000" font-family="sans-serif" font-size="14" lengthAdjust="spacing" textLength="69">Processor</text><rect width="77" height="30.297" x="562" y="5" fill="#FEFECE" filter="url(#f14urjb8y1a2ds)" style="stroke:#a80036;stroke-width:1.5"/><text x="569" y="24.995" fill="#000" font-family="sans-serif" font-size="14" lengthAdjust="spacing" textLength="63">Owner_B</text><rect width="77" height="30.297" x="562" y="636.82" fill="#FEFECE" filter="url(#f14urjb8y1a2ds)" style="stroke:#a80036;stroke-width:1.5"/><text x="569" y="656.815" fill="#000" font-family="sans-serif" font-size="14" lengthAdjust="spacing" textLength="63">Owner_B</text><polygon fill="#FBFB77" points="84 55.297 181 55.297 191 66.297 181 78.297 84 78.297 74 66.297 84 55.297" filter="url(#f14urjb8y1a2ds)" style="stroke:#a80036;stroke-width:1"/><text x="86" y="71.364" fill="#000" font-family="sans-serif" font-size="13" lengthAdjust="spacing" textLength="93">owner-rev = 1</text><polygon fill="#A80036" points="308.5 100.563 318.5 104.563 308.5 108.563 312.5 104.563" style="stroke:#a80036;stroke-width:1"/><line style="stroke:#a80036;stroke-width:1" x1="132.5" x2="314.5" y1="104.563" y2="104.563"/><text x="139.5" y="99.497" fill="#000" font-family="sans-serif" font-size="13" font-weight="bold" lengthAdjust="spacing" textLength="9">1</text><text x="152.5" y="99.497" fill="#000" font-family="sans-serif" font-size="13" lengthAdjust="spacing" textLength="151">DispatchTable(Table 1)</text><polygon fill="#FBFB77" points="274 117.563 367 117.563 377 128.563 367 140.563 274 140.563 264 128.563 274 117.563" filter="url(#f14urjb8y1a2ds)" style="stroke:#a80036;stroke-width:1"/><text x="276" y="133.629" fill="#000" font-family="sans-serif" font-size="13" lengthAdjust="spacing" textLength="89">starts Table 1</text><polygon fill="#A80036" points="308.5 162.828 318.5 166.828 308.5 170.828 312.5 166.828" style="stroke:#a80036;stroke-width:1"/><line style="stroke:#a80036;stroke-width:1" x1="132.5" x2="314.5" y1="166.828" y2="166.828"/><text x="139.5" y="161.762" fill="#000" font-family="sans-serif" font-size="13" font-weight="bold" lengthAdjust="spacing" textLength="9">2</text><text x="152.5" y="161.762" fill="#000" font-family="sans-serif" font-size="13" lengthAdjust="spacing" textLength="151">DispatchTable(Table 2)</text><polygon fill="#FBFB77" points="274 179.828 367 179.828 377 190.828 367 202.828 274 202.828 264 190.828 274 179.828" filter="url(#f14urjb8y1a2ds)" style="stroke:#a80036;stroke-width:1"/><text x="276" y="195.895" fill="#000" font-family="sans-serif" font-size="13" lengthAdjust="spacing" textLength="89">starts Table 2</text><polygon fill="#FBFB77" points="50 212.961 214 212.961 224 231.961 214 250.961 50 250.961 40 231.961 50 212.961" filter="url(#f14urjb8y1a2ds)" style="stroke:#a80036;stroke-width:1"/><text x="52" y="229.028" fill="#000" font-family="sans-serif" font-size="13" lengthAdjust="spacing" textLength="102">abnormal delay</text><text x="52" y="244.161" fill="#000" font-family="sans-serif" font-size="13" lengthAdjust="spacing" textLength="160">causes Etcd session loss</text><polygon fill="#FBFB77" points="554 261.227 651 261.227 661 272.227 651 284.227 554 284.227 544 272.227 554 261.227" filter="url(#f14urjb8y1a2ds)" style="stroke:#a80036;stroke-width:1"/><text x="556" y="277.293" fill="#000" font-family="sans-serif" font-size="13" lengthAdjust="spacing" textLength="93">owner-rev = 2</text><polygon fill="#A80036" points="331.5 306.492 321.5 310.492 331.5 314.492 327.5 310.492" style="stroke:#a80036;stroke-width:1"/><line style="stroke:#a80036;stroke-width:1" x1="325.5" x2="601.5" y1="310.492" y2="310.492"/><text x="337.5" y="305.426" fill="#000" font-family="sans-serif" font-size="13" font-weight="bold" lengthAdjust="spacing" textLength="9">3</text><text x="350.5" y="305.426" fill="#000" font-family="sans-serif" font-size="13" lengthAdjust="spacing" textLength="167">Announce(owner-rev = 2)</text><polygon fill="#FBFB77" points="237 323.492 404 323.492 414 334.492 404 346.492 237 346.492 227 334.492 237 323.492" filter="url(#f14urjb8y1a2ds)" style="stroke:#a80036;stroke-width:1"/><text x="239" y="339.559" fill="#000" font-family="sans-serif" font-size="13" lengthAdjust="spacing" textLength="163">recognizes Owner_B now</text><polygon fill="#A80036" points="590.5 368.758 600.5 372.758 590.5 376.758 594.5 372.758" style="stroke:#a80036;stroke-width:1"/><line style="stroke:#a80036;stroke-width:1;stroke-dasharray:2,2" x1="320.5" x2="596.5" y1="372.758" y2="372.758"/><text x="327.5" y="367.692" fill="#000" font-family="sans-serif" font-size="13" font-weight="bold" lengthAdjust="spacing" textLength="9">4</text><text x="340.5" y="367.692" fill="#000" font-family="sans-serif" font-size="13" lengthAdjust="spacing" textLength="245">Sync(Tables 1 and 2 are being added)</text><path fill="#FBFB77" d="M5,385.7578 L5,425.7578 L124,425.7578 L124,395.7578 L114,385.7578 L5,385.7578" filter="url(#f14urjb8y1a2ds)" style="stroke:#a80036;stroke-width:1"/><path fill="#FBFB77" d="M114,385.7578 L114,395.7578 L124,395.7578 L114,385.7578" style="stroke:#a80036;stroke-width:1"/><text x="11" y="402.825" fill="#000" font-family="sans-serif" font-size="13" lengthAdjust="spacing" textLength="66">thinking it</text><text x="11" y="417.957" fill="#000" font-family="sans-serif" font-size="13" lengthAdjust="spacing" textLength="98">was still owner</text><line style="stroke:#a80036;stroke-width:2" x1="302.5" x2="312.5" y1="451.156" y2="461.156"/><line style="stroke:#a80036;stroke-width:2" x1="302.5" x2="312.5" y1="461.156" y2="451.156"/><line style="stroke:#a80036;stroke-width:1" x1="132.5" x2="307.5" y1="456.156" y2="456.156"/><text x="139.5" y="451.09" fill="#000" font-family="sans-serif" font-size="13" font-weight="bold" lengthAdjust="spacing" textLength="9">5</text><text x="152.5" y="451.09" fill="#000" font-family="sans-serif" font-size="13" lengthAdjust="spacing" textLength="151">DispatchTable(Table 3)</text><path fill="#FBFB77" d="M325,469.1563 L325,494.1563 L470,494.1563 L470,479.1563 L460,469.1563 L325,469.1563" filter="url(#f14urjb8y1a2ds)" style="stroke:#a80036;stroke-width:1"/><path fill="#FBFB77" d="M460,469.1563 L460,479.1563 L470,479.1563 L460,469.1563" style="stroke:#a80036;stroke-width:1"/><text x="331" y="486.223" fill="#000" font-family="sans-serif" font-size="13" lengthAdjust="spacing" textLength="124">rejects stale owner</text><polygon fill="#FBFB77" points="274 508.289 367 508.289 377 519.289 367 531.289 274 531.289 264 519.289 274 508.289" filter="url(#f14urjb8y1a2ds)" style="stroke:#a80036;stroke-width:1"/><text x="276" y="524.356" fill="#000" font-family="sans-serif" font-size="13" lengthAdjust="spacing" textLength="89">Table 1 ready</text><polygon fill="#A80036" points="590.5 553.555 600.5 557.555 590.5 561.555 594.5 557.555" style="stroke:#a80036;stroke-width:1"/><line style="stroke:#a80036;stroke-width:1;stroke-dasharray:2,2" x1="320.5" x2="596.5" y1="557.555" y2="557.555"/><text x="327.5" y="552.489" fill="#000" font-family="sans-serif" font-size="13" font-weight="bold" lengthAdjust="spacing" textLength="9">6</text><text x="340.5" y="552.489" fill="#000" font-family="sans-serif" font-size="13" lengthAdjust="spacing" textLength="214">DispatchTableResponse(Table 1)</text><polygon fill="#FBFB77" points="274 570.555 367 570.555 377 581.555 367 593.555 274 593.555 264 581.555 274 570.555" filter="url(#f14urjb8y1a2ds)" style="stroke:#a80036;stroke-width:1"/><text x="276" y="586.622" fill="#000" font-family="sans-serif" font-size="13" lengthAdjust="spacing" textLength="89">Table 2 ready</text><polygon fill="#A80036" points="590.5 615.82 600.5 619.82 590.5 623.82 594.5 619.82" style="stroke:#a80036;stroke-width:1"/><line style="stroke:#a80036;stroke-width:1;stroke-dasharray:2,2" x1="320.5" x2="596.5" y1="619.82" y2="619.82"/><text x="327.5" y="614.754" fill="#000" font-family="sans-serif" font-size="13" font-weight="bold" lengthAdjust="spacing" textLength="9">7</text><text x="340.5" y="614.754" fill="#000" font-family="sans-serif" font-size="13" lengthAdjust="spacing" textLength="214">DispatchTableResponse(Table 2)</text></g></svg>