<svg xmlns="http://www.w3.org/2000/svg" xmlns:xlink="http://www.w3.org/1999/xlink" width="529" height="535" contentScriptType="application/ecmascript" contentStyleType="text/css" preserveAspectRatio="none" style="width:529px;height:535px;background:#fff" version="1.1" viewBox="0 0 529 535" zoomAndPan="magnify"><defs><filter id="f1jotxap47aatu" width="300%" height="300%" x="-1" y="-1"><feGaussianBlur result="blurOut" stdDeviation="2"/><feColorMatrix in="blurOut" result="blurOut2" type="matrix" values="0 0 0 0 0 0 0 0 0 0 0 0 0 0 0 0 0 0 .4 0"/><feOffset dx="4" dy="4" in="blurOut2" result="blurOut3"/><feBlend in="SourceGraphic" in2="blurOut3" mode="normal"/></filter></defs><g><line style="stroke:#a80036;stroke-width:1;stroke-dasharray:5,5" x1="37" x2="37" y1="40.297" y2="492.156"/><line style="stroke:#a80036;stroke-width:1;stroke-dasharray:5,5" x1="151" x2="151" y1="40.297" y2="492.156"/><line style="stroke:#a80036;stroke-width:1;stroke-dasharray:5,5" x1="224" x2="224" y1="40.297" y2="492.156"/><line style="stroke:#a80036;stroke-width:1;stroke-dasharray:5,5" x1="331.5" x2="331.5" y1="40.297" y2="492.156"/><line style="stroke:#a80036;stroke-width:1;stroke-dasharray:5,5" x1="448" x2="448" y1="40.297" y2="492.156"/><rect width="61" height="30.297" x="5" y="5" fill="#FEFECE" filter="url(#f1jotxap47aatu)" style="stroke:#a80036;stroke-width:1.5"/><text x="12" y="24.995" fill="#000" font-family="sans-serif" font-size="14" lengthAdjust="spacing" textLength="47">Router</text><rect width="61" height="30.297" x="5" y="491.156" fill="#FEFECE" filter="url(#f1jotxap47aatu)" style="stroke:#a80036;stroke-width:1.5"/><text x="12" y="511.151" fill="#000" font-family="sans-serif" font-size="14" lengthAdjust="spacing" textLength="47">Router</text><rect width="65" height="30.297" x="117" y="5" fill="#FEFECE" filter="url(#f1jotxap47aatu)" style="stroke:#a80036;stroke-width:1.5"/><text x="124" y="24.995" fill="#000" font-family="sans-serif" font-size="14" lengthAdjust="spacing" textLength="51">Mailbox</text><rect width="65" height="30.297" x="117" y="491.156" fill="#FEFECE" filter="url(#f1jotxap47aatu)" style="stroke:#a80036;stroke-width:1.5"/><text x="124" y="511.151" fill="#000" font-family="sans-serif" font-size="14" lengthAdjust="spacing" textLength="51">Mailbox</text><rect width="52" height="30.297" x="196" y="5" fill="#FEFECE" filter="url(#f1jotxap47aatu)" style="stroke:#a80036;stroke-width:1.5"/><text x="203" y="24.995" fill="#000" font-family="sans-serif" font-size="14" lengthAdjust="spacing" textLength="38">ready</text><rect width="52" height="30.297" x="196" y="491.156" fill="#FEFECE" filter="url(#f1jotxap47aatu)" style="stroke:#a80036;stroke-width:1.5"/><text x="203" y="511.151" fill="#000" font-family="sans-serif" font-size="14" lengthAdjust="spacing" textLength="38">ready</text><rect width="65" height="30.297" x="297.5" y="5" fill="#FEFECE" filter="url(#f1jotxap47aatu)" style="stroke:#a80036;stroke-width:1.5"/><text x="304.5" y="24.995" fill="#000" font-family="sans-serif" font-size="14" lengthAdjust="spacing" textLength="51">System</text><rect width="65" height="30.297" x="297.5" y="491.156" fill="#FEFECE" filter="url(#f1jotxap47aatu)" style="stroke:#a80036;stroke-width:1.5"/><text x="304.5" y="511.151" fill="#000" font-family="sans-serif" font-size="14" lengthAdjust="spacing" textLength="51">System</text><rect width="50" height="30.297" x="421" y="5" fill="#FEFECE" filter="url(#f1jotxap47aatu)" style="stroke:#a80036;stroke-width:1.5"/><text x="428" y="24.995" fill="#000" font-family="sans-serif" font-size="14" lengthAdjust="spacing" textLength="36">Actor</text><rect width="50" height="30.297" x="421" y="491.156" fill="#FEFECE" filter="url(#f1jotxap47aatu)" style="stroke:#a80036;stroke-width:1.5"/><text x="428" y="511.151" fill="#000" font-family="sans-serif" font-size="14" lengthAdjust="spacing" textLength="36">Actor</text><line style="stroke:#a80036;stroke-width:1" x1="37.5" x2="79.5" y1="71.43" y2="71.43"/><line style="stroke:#a80036;stroke-width:1" x1="79.5" x2="79.5" y1="71.43" y2="84.43"/><line style="stroke:#a80036;stroke-width:1" x1="38.5" x2="79.5" y1="84.43" y2="84.43"/><polygon fill="#A80036" points="48.5 80.43 38.5 84.43 48.5 88.43 44.5 84.43" style="stroke:#a80036;stroke-width:1"/><text x="44.5" y="66.364" fill="#000" font-family="sans-serif" font-size="13" lengthAdjust="spacing" textLength="78">Send(msgs)</text><line style="stroke:#a80036;stroke-width:1" x1="37.5" x2="79.5" y1="113.563" y2="113.563"/><line style="stroke:#a80036;stroke-width:1" x1="79.5" x2="79.5" y1="113.563" y2="126.563"/><line style="stroke:#a80036;stroke-width:1" x1="38.5" x2="79.5" y1="126.563" y2="126.563"/><polygon fill="#A80036" points="48.5 122.563 38.5 126.563 48.5 130.563 44.5 126.563" style="stroke:#a80036;stroke-width:1"/><text x="44.5" y="108.497" fill="#000" font-family="sans-serif" font-size="13" lengthAdjust="spacing" textLength="55">find proc</text><polygon fill="#A80036" points="139.5 181.961 149.5 185.961 139.5 189.961 143.5 185.961" style="stroke:#a80036;stroke-width:1"/><line style="stroke:#a80036;stroke-width:1" x1="37.5" x2="145.5" y1="185.961" y2="185.961"/><text x="44.5" y="150.629" fill="#000" font-family="sans-serif" font-size="13" lengthAdjust="spacing" textLength="28">proc</text><text x="52.5" y="165.762" fill="#000" font-family="sans-serif" font-size="13" lengthAdjust="spacing" textLength="52">.Mailbox</text><text x="52.5" y="180.895" fill="#000" font-family="sans-serif" font-size="13" lengthAdjust="spacing" textLength="82">.Send(msgs)</text><polygon fill="#A80036" points="212 211.094 222 215.094 212 219.094 216 215.094" style="stroke:#a80036;stroke-width:1"/><line style="stroke:#a80036;stroke-width:1" x1="37.5" x2="218" y1="215.094" y2="215.094"/><text x="44.5" y="210.028" fill="#000" font-family="sans-serif" font-size="13" lengthAdjust="spacing" textLength="95">schedule(proc)</text><line style="stroke:#a80036;stroke-width:1" x1="224" x2="266" y1="244.227" y2="244.227"/><line style="stroke:#a80036;stroke-width:1" x1="266" x2="266" y1="244.227" y2="257.227"/><line style="stroke:#a80036;stroke-width:1" x1="225" x2="266" y1="257.227" y2="257.227"/><polygon fill="#A80036" points="235 253.227 225 257.227 235 261.227 231 257.227" style="stroke:#a80036;stroke-width:1"/><text x="231" y="239.161" fill="#000" font-family="sans-serif" font-size="13" lengthAdjust="spacing" textLength="94">enqueue(proc)</text><polygon fill="#A80036" points="320 282.359 330 286.359 320 290.359 324 286.359" style="stroke:#a80036;stroke-width:1"/><line style="stroke:#a80036;stroke-width:1" x1="224" x2="326" y1="286.359" y2="286.359"/><text x="231" y="281.293" fill="#000" font-family="sans-serif" font-size="13" lengthAdjust="spacing" textLength="47">signal()</text><polygon fill="#A80036" points="235 311.492 225 315.492 235 319.492 231 315.492" style="stroke:#a80036;stroke-width:1"/><line style="stroke:#a80036;stroke-width:1" x1="229" x2="331" y1="315.492" y2="315.492"/><text x="241" y="310.426" fill="#000" font-family="sans-serif" font-size="13" lengthAdjust="spacing" textLength="70">fetchProc()</text><polygon fill="#A80036" points="320 340.625 330 344.625 320 348.625 324 344.625" style="stroke:#a80036;stroke-width:1"/><line style="stroke:#a80036;stroke-width:1" x1="224" x2="326" y1="344.625" y2="344.625"/><text x="231" y="339.559" fill="#000" font-family="sans-serif" font-size="13" lengthAdjust="spacing" textLength="71">return proc</text><polygon fill="#A80036" points="436 369.758 446 373.758 436 377.758 440 373.758" style="stroke:#a80036;stroke-width:1"/><line style="stroke:#a80036;stroke-width:1" x1="332" x2="442" y1="373.758" y2="373.758"/><text x="339" y="368.692" fill="#000" font-family="sans-serif" font-size="13" lengthAdjust="spacing" textLength="92">poll proc.Actor</text><polygon fill="#A80036" points="162.5 398.891 152.5 402.891 162.5 406.891 158.5 402.891" style="stroke:#a80036;stroke-width:1"/><line style="stroke:#a80036;stroke-width:1" x1="156.5" x2="447" y1="402.891" y2="402.891"/><text x="168.5" y="397.825" fill="#000" font-family="sans-serif" font-size="13" lengthAdjust="spacing" textLength="66">tryReceive</text><polygon fill="#A80036" points="436 428.023 446 432.023 436 436.023 440 432.023" style="stroke:#a80036;stroke-width:1"/><line style="stroke:#a80036;stroke-width:1" x1="151.5" x2="442" y1="432.023" y2="432.023"/><text x="158.5" y="426.957" fill="#000" font-family="sans-serif" font-size="13" lengthAdjust="spacing" textLength="78">return msgs</text><line style="stroke:#a80036;stroke-width:1" x1="448" x2="490" y1="461.156" y2="461.156"/><line style="stroke:#a80036;stroke-width:1" x1="490" x2="490" y1="461.156" y2="474.156"/><line style="stroke:#a80036;stroke-width:1" x1="449" x2="490" y1="474.156" y2="474.156"/><polygon fill="#A80036" points="459 470.156 449 474.156 459 478.156 455 474.156" style="stroke:#a80036;stroke-width:1"/><text x="455" y="456.09" fill="#000" font-family="sans-serif" font-size="13" lengthAdjust="spacing" textLength="67">Poll(msgs)</text></g></svg>