<svg xmlns="http://www.w3.org/2000/svg" xmlns:xlink="http://www.w3.org/1999/xlink" width="510" height="502" contentScriptType="application/ecmascript" contentStyleType="text/css" preserveAspectRatio="none" style="width:510px;height:502px;background:#fff" version="1.1" viewBox="0 0 510 502" zoomAndPan="magnify"><defs><filter id="f1v7q03kszvp13" width="300%" height="300%" x="-1" y="-1"><feGaussianBlur result="blurOut" stdDeviation="2"/><feColorMatrix in="blurOut" result="blurOut2" type="matrix" values="0 0 0 0 0 0 0 0 0 0 0 0 0 0 0 0 0 0 .4 0"/><feOffset dx="4" dy="4" in="blurOut2" result="blurOut3"/><feBlend in="SourceGraphic" in2="blurOut3" mode="normal"/></filter></defs><g><rect width="95" height="490.391" x="16" fill="#ADD8E6" style="stroke:#a80036;stroke-width:1" y="6"/><rect width="10" height="282.266" x="189" y="115.695" fill="#FFF" filter="url(#f1v7q03kszvp13)" style="stroke:#a80036;stroke-width:1"/><rect width="10" height="164.93" x="194" y="233.031" fill="#FFF" filter="url(#f1v7q03kszvp13)" style="stroke:#a80036;stroke-width:1"/><rect width="388.5" height="207.867" x="10" y="62.297" fill="#FFF" filter="url(#f1v7q03kszvp13)" style="stroke:#000;stroke-width:2"/><rect width="388.5" height="117.336" x="10" fill="#FFF" style="stroke:none;stroke-width:1" y="152.828"/><line style="stroke:#a80036;stroke-width:1;stroke-dasharray:5,5" x1="39" x2="39" y1="45.297" y2="458.094"/><line style="stroke:#a80036;stroke-width:1;stroke-dasharray:5,5" x1="87" x2="87" y1="45.297" y2="458.094"/><line style="stroke:#a80036;stroke-width:1;stroke-dasharray:5,5" x1="194" x2="194" y1="45.297" y2="458.094"/><line style="stroke:#a80036;stroke-width:1;stroke-dasharray:5,5" x1="356.5" x2="356.5" y1="45.297" y2="458.094"/><rect width="34" height="30.297" x="20" y="10" fill="#FEFECE" filter="url(#f1v7q03kszvp13)" style="stroke:#a80036;stroke-width:1.5"/><text x="27" y="29.995" fill="#000" font-family="sans-serif" font-size="14" lengthAdjust="spacing" textLength="20">CLI</text><rect width="34" height="30.297" x="20" y="457.094" fill="#FEFECE" filter="url(#f1v7q03kszvp13)" style="stroke:#a80036;stroke-width:1.5"/><text x="27" y="477.089" fill="#000" font-family="sans-serif" font-size="14" lengthAdjust="spacing" textLength="20">CLI</text><rect width="35" height="30.297" x="68" y="10" fill="#FEFECE" filter="url(#f1v7q03kszvp13)" style="stroke:#a80036;stroke-width:1.5"/><text x="75" y="29.995" fill="#000" font-family="sans-serif" font-size="14" lengthAdjust="spacing" textLength="21">API</text><rect width="35" height="30.297" x="68" y="457.094" fill="#FEFECE" filter="url(#f1v7q03kszvp13)" style="stroke:#a80036;stroke-width:1.5"/><text x="75" y="477.089" fill="#000" font-family="sans-serif" font-size="14" lengthAdjust="spacing" textLength="21">API</text><rect width="34" height="30.297" x="175" y="10" fill="#FEFECE" filter="url(#f1v7q03kszvp13)" style="stroke:#a80036;stroke-width:1.5"/><text x="182" y="29.995" fill="#000" font-family="sans-serif" font-size="14" lengthAdjust="spacing" textLength="20">PD</text><rect width="34" height="30.297" x="175" y="457.094" fill="#FEFECE" filter="url(#f1v7q03kszvp13)" style="stroke:#a80036;stroke-width:1.5"/><text x="182" y="477.089" fill="#000" font-family="sans-serif" font-size="14" lengthAdjust="spacing" textLength="20">PD</text><rect width="59" height="30.297" x="325.5" y="10" fill="#FEFECE" filter="url(#f1v7q03kszvp13)" style="stroke:#a80036;stroke-width:1.5"/><text x="332.5" y="29.995" fill="#000" font-family="sans-serif" font-size="14" lengthAdjust="spacing" textLength="45">Owner</text><rect width="59" height="30.297" x="325.5" y="457.094" fill="#FEFECE" filter="url(#f1v7q03kszvp13)" style="stroke:#a80036;stroke-width:1.5"/><text x="332.5" y="477.089" fill="#000" font-family="sans-serif" font-size="14" lengthAdjust="spacing" textLength="45">Owner</text><rect width="10" height="282.266" x="189" y="115.695" fill="#FFF" filter="url(#f1v7q03kszvp13)" style="stroke:#a80036;stroke-width:1"/><rect width="10" height="164.93" x="194" y="233.031" fill="#FFF" filter="url(#f1v7q03kszvp13)" style="stroke:#a80036;stroke-width:1"/><path fill="#EEE" d="M10,62.2969 L153,62.2969 L153,69.2969 L143,79.2969 L10,79.2969 L10,62.2969" style="stroke:#000;stroke-width:1"/><rect width="388.5" height="207.867" x="10" fill="none" style="stroke:#000;stroke-width:2" y="62.297"/><text x="25" y="75.364" fill="#000" font-family="sans-serif" font-size="13" font-weight="bold" lengthAdjust="spacing" textLength="93">&quot;CLI or API?&quot;</text><text x="168" y="74.507" fill="#000" font-family="sans-serif" font-size="11" font-weight="bold" lengthAdjust="spacing" textLength="30">[CLI]</text><polygon fill="#A80036" points="177 111.695 187 115.695 177 119.695 181 115.695" style="stroke:#a80036;stroke-width:1"/><line style="stroke:#a80036;stroke-width:1" x1="39" x2="183" y1="115.695" y2="115.695"/><text x="46" y="95.497" fill="#000" font-family="sans-serif" font-size="13" lengthAdjust="spacing" textLength="131">service GC safepoint</text><text x="46" y="110.629" fill="#000" font-family="sans-serif" font-size="13" lengthAdjust="spacing" textLength="129">&quot;cdc-creating-&lt;ID&gt;&quot;</text><polygon fill="#A80036" points="177 140.828 187 144.828 177 148.828 181 144.828" style="stroke:#a80036;stroke-width:1"/><line style="stroke:#a80036;stroke-width:1" x1="39" x2="183" y1="144.828" y2="144.828"/><text x="46" y="139.762" fill="#000" font-family="sans-serif" font-size="13" lengthAdjust="spacing" textLength="122">Create changefeed</text><line style="stroke:#000;stroke-width:1;stroke-dasharray:2,2" x1="10" x2="398.5" y1="153.828" y2="153.828"/><text x="15" y="164.039" fill="#000" font-family="sans-serif" font-size="11" font-weight="bold" lengthAdjust="spacing" textLength="30">[API]</text><polygon fill="#A80036" points="345 184.766 355 188.766 345 192.766 349 188.766" style="stroke:#a80036;stroke-width:1"/><line style="stroke:#a80036;stroke-width:1" x1="87.5" x2="351" y1="188.766" y2="188.766"/><text x="94.5" y="183.7" fill="#000" font-family="sans-serif" font-size="13" lengthAdjust="spacing" textLength="146">Create changefeed API</text><polygon fill="#A80036" points="215 229.031 205 233.031 215 237.031 211 233.031" style="stroke:#a80036;stroke-width:1"/><line style="stroke:#a80036;stroke-width:1" x1="209" x2="356" y1="233.031" y2="233.031"/><text x="221" y="212.833" fill="#000" font-family="sans-serif" font-size="13" lengthAdjust="spacing" textLength="131">service GC safepoint</text><text x="221" y="227.965" fill="#000" font-family="sans-serif" font-size="13" lengthAdjust="spacing" textLength="129">&quot;cdc-creating-&lt;ID&gt;&quot;</text><polygon fill="#A80036" points="215 258.164 205 262.164 215 266.164 211 262.164" style="stroke:#a80036;stroke-width:1"/><line style="stroke:#a80036;stroke-width:1" x1="209" x2="356" y1="262.164" y2="262.164"/><text x="221" y="257.098" fill="#000" font-family="sans-serif" font-size="13" lengthAdjust="spacing" textLength="122">Create changefeed</text><polygon fill="#A80036" points="215 314.43 205 318.43 215 322.43 211 318.43" style="stroke:#a80036;stroke-width:1"/><line style="stroke:#a80036;stroke-width:1" x1="209" x2="356" y1="318.43" y2="318.43"/><text x="221" y="313.364" fill="#000" font-family="sans-serif" font-size="13" lengthAdjust="spacing" textLength="126">GC safepoint &quot;ticdc&quot;</text><path fill="#FBFB77" d="M362,282.1641 L362,337.1641 L501,337.1641 L501,292.1641 L491,282.1641 L362,282.1641" filter="url(#f1v7q03kszvp13)" style="stroke:#a80036;stroke-width:1"/><path fill="#FBFB77" d="M491,282.1641 L491,292.1641 L501,292.1641 L491,282.1641" style="stroke:#a80036;stroke-width:1"/><text x="368" y="299.231" fill="#000" font-family="sans-serif" font-size="13" lengthAdjust="spacing" textLength="114">using the minimal</text><text x="368" y="314.364" fill="#000" font-family="sans-serif" font-size="13" lengthAdjust="spacing" textLength="118">checkpoint among</text><text x="368" y="329.497" fill="#000" font-family="sans-serif" font-size="13" lengthAdjust="spacing" textLength="100">all changefeeds</text><polygon fill="#A80036" points="205 393.961 195 397.961 205 401.961 201 397.961" style="stroke:#a80036;stroke-width:1"/><line style="stroke:#a80036;stroke-width:1" x1="199" x2="356" y1="397.961" y2="397.961"/><text x="211" y="362.629" fill="#000" font-family="sans-serif" font-size="13" lengthAdjust="spacing" textLength="101">Remove service</text><text x="211" y="377.762" fill="#000" font-family="sans-serif" font-size="13" lengthAdjust="spacing" textLength="82">GC safepoint</text><text x="211" y="392.895" fill="#000" font-family="sans-serif" font-size="13" lengthAdjust="spacing" textLength="129">&quot;cdc-creating-&lt;ID&gt;&quot;</text><line style="stroke:#a80036;stroke-width:1" x1="357" x2="399" y1="427.094" y2="427.094"/><line style="stroke:#a80036;stroke-width:1" x1="399" x2="399" y1="427.094" y2="440.094"/><line style="stroke:#a80036;stroke-width:1" x1="358" x2="399" y1="440.094" y2="440.094"/><polygon fill="#A80036" points="368 436.094 358 440.094 368 444.094 364 440.094" style="stroke:#a80036;stroke-width:1"/><text x="364" y="422.028" fill="#000" font-family="sans-serif" font-size="13" lengthAdjust="spacing" textLength="111">Start changefeed</text></g></svg>